<svg id="Capa_1" enable-background="new 0 0 512 512" height="512" viewBox="0 0 512 512" width="512" xmlns="http://www.w3.org/2000/svg"><circle cx="256" cy="256" fill="#fcee56" r="248.5"/><path d="m422.919 71.908c40.021 44.112 64.408 102.667 64.408 166.919 0 137.243-111.257 248.5-248.5 248.5-64.252 0-122.808-24.387-166.919-64.408 45.463 50.111 111.102 81.581 184.092 81.581 137.243 0 248.5-111.257 248.5-248.5 0-72.99-31.47-138.629-81.581-184.092z" fill="#fbd307"/><path d="m288.911 9.672-254.652 358.618c-9.405-18.536-16.557-38.406-21.092-59.256l212.831-299.736c9.839-1.192 19.85-1.798 30.002-1.798 11.162 0 22.143.737 32.911 2.172z" fill="#fbf4af"/><path d="m404.433 56.685-287.694 405.156c-22.234-15.072-41.892-33.649-58.175-54.933l274.865-387.094c25.789 8.435 49.71 20.991 71.004 36.871z" fill="#fbf4af"/><circle cx="256" cy="256" fill="#e6b700" r="202.033"/><circle cx="256" cy="256" fill="#fbd307" r="180.819"/><path d="m318.742 256c14.124-11.869 23.122-29.649 23.122-49.498 0-30.79-21.642-56.604-50.508-63.073v-28.852h-30.305v27.274h-20.203v-27.274h-30.305v27.274h-39.396v30.305h19.193v83.844 83.844h-19.193v30.305h39.396v27.274h30.305v-27.274h20.203v27.274h30.305v-28.852c28.867-6.469 50.508-32.284 50.508-63.073 0-19.849-8.999-37.629-23.122-49.498zm-7.183-49.498c0 18.938-15.407 34.346-34.346 34.346h-56.569v-68.691h56.569c18.939 0 34.346 15.407 34.346 34.345zm-34.346 133.342h-56.569v-68.691h56.569c18.939 0 34.346 15.407 34.346 34.346s-15.407 34.345-34.346 34.345z" fill="#fba615"/><path d="m437.02 74.98c-48.352-48.351-112.64-74.98-181.02-74.98-59.885 0-118.137 21.11-164.023 59.441-3.179 2.655-3.603 7.385-.947 10.564 2.654 3.179 7.384 3.604 10.564.948 43.193-36.082 98.029-55.953 154.406-55.953 132.888 0 241 108.112 241 241s-108.112 241-241 241-241-108.112-241-241c0-59.76 22.03-117.082 62.032-161.407 2.774-3.075 2.531-7.818-.544-10.593-3.072-2.773-7.815-2.534-10.592.543-42.494 47.087-65.896 107.978-65.896 171.457 0 68.38 26.629 132.667 74.98 181.02 48.352 48.351 112.64 74.98 181.02 74.98s132.668-26.629 181.02-74.98c48.351-48.353 74.98-112.64 74.98-181.02s-26.629-132.667-74.98-181.02z"/><path d="m409.473 387.608c3.242 2.58 7.961 2.044 10.539-1.196 29.78-37.405 45.521-82.5 45.521-130.412 0-115.537-93.996-209.533-209.532-209.533s-209.533 93.996-209.533 209.533 93.996 209.533 209.532 209.533c51.308 0 100.678-18.735 139.016-52.755 3.099-2.749 3.382-7.49.632-10.588-2.747-3.097-7.487-3.381-10.587-.632-35.592 31.582-81.426 48.975-129.061 48.975-107.266 0-194.532-87.267-194.532-194.533s87.266-194.533 194.532-194.533 194.532 87.267 194.532 194.533c0 44.482-14.611 86.347-42.255 121.069-2.58 3.241-2.045 7.959 1.196 10.539z"/><path d="m213.145 339.843c0 4.142 3.357 7.5 7.5 7.5h56.569c23.073 0 41.845-18.771 41.845-41.845s-18.771-41.846-41.845-41.846h-56.569c-4.143 0-7.5 3.358-7.5 7.5zm15-61.191h49.069c14.803 0 26.845 12.043 26.845 26.846 0 14.802-12.042 26.845-26.845 26.845h-49.069z"/><path d="m220.645 248.348h56.569c23.073 0 41.845-18.772 41.845-41.846s-18.771-41.845-41.845-41.845h-56.569c-4.143 0-7.5 3.358-7.5 7.5v68.691c0 4.142 3.357 7.5 7.5 7.5zm7.5-68.691h49.069c14.803 0 26.845 12.043 26.845 26.845 0 14.803-12.042 26.846-26.845 26.846h-49.069z"/><path d="m333.258 161.119c-8.942-11.017-20.996-19.191-34.402-23.428v-23.113c0-4.142-3.357-7.5-7.5-7.5h-30.305c-4.143 0-7.5 3.358-7.5 7.5v19.774h-5.203v-19.774c0-4.142-3.357-7.5-7.5-7.5h-30.305c-4.143 0-7.5 3.358-7.5 7.5v19.774h-31.896c-4.143 0-7.5 3.358-7.5 7.5v30.305c0 4.142 3.357 7.5 7.5 7.5h11.693v32.843c0 4.142 3.357 7.5 7.5 7.5s7.5-3.358 7.5-7.5v-40.343c0-4.142-3.357-7.5-7.5-7.5h-11.693v-15.305h31.896c4.143 0 7.5-3.358 7.5-7.5v-19.774h15.305v19.774c0 4.142 3.357 7.5 7.5 7.5h20.203c4.143 0 7.5-3.358 7.5-7.5v-19.774h15.305v21.352c0 3.51 2.435 6.551 5.86 7.318 25.871 5.798 44.648 29.246 44.648 55.755 0 16.887-7.453 32.836-20.448 43.756-1.695 1.425-2.675 3.527-2.675 5.742s.979 4.317 2.675 5.742c12.995 10.92 20.448 26.869 20.448 43.756 0 26.509-18.777 49.957-44.648 55.755-3.426.768-5.86 3.808-5.86 7.318v21.352h-15.305v-19.774c0-4.142-3.357-7.5-7.5-7.5h-20.203c-4.143 0-7.5 3.358-7.5 7.5v19.774h-15.305v-19.774c0-4.142-3.357-7.5-7.5-7.5h-31.896v-15.305h11.693c4.143 0 7.5-3.358 7.5-7.5v-92.218c0-4.142-3.357-7.5-7.5-7.5s-7.5 3.358-7.5 7.5v84.718h-11.693c-4.143 0-7.5 3.358-7.5 7.5v30.305c0 4.142 3.357 7.5 7.5 7.5h31.896v19.774c0 4.142 3.357 7.5 7.5 7.5h30.305c4.143 0 7.5-3.358 7.5-7.5v-19.774h5.203v19.774c0 4.142 3.357 7.5 7.5 7.5h30.305c4.143 0 7.5-3.358 7.5-7.5v-23.114c13.406-4.237 25.46-12.411 34.402-23.428 10.387-12.795 16.106-28.913 16.106-45.383 0-18.529-7.096-36.156-19.709-49.498 12.613-13.342 19.709-30.969 19.709-49.498 0-16.471-5.719-32.589-16.106-45.384z"/></svg>